<svg width="18" height="45" viewBox="0 0 18 45" fill="none" xmlns="http://www.w3.org/2000/svg">
<path d="M4.61087 0.241028V4.66309H6.59195C6.02593 8.62084 2.43385 12.4017 0.256836 15.7182V26.2649C0.935292 26.8882 1.47758 27.649 1.84872 28.4982C2.21986 29.3475 2.41162 30.2663 2.41162 31.1955C2.41162 32.1246 2.21986 33.0434 1.84872 33.8927C1.47758 34.7419 0.935292 35.5028 0.256836 36.1261V40.0396C0.256836 41.2124 0.715564 42.3372 1.5321 43.1665C2.34864 43.9958 3.45611 44.4617 4.61087 44.4617H13.3189C15.7354 44.4617 17.673 42.4938 17.673 40.0396V36.1261C16.9945 35.5028 16.4522 34.7419 16.0811 33.8927C15.7099 33.0434 15.5182 32.1246 15.5182 31.1955C15.5182 30.2663 15.7099 29.3475 16.0811 28.4982C16.4522 27.649 16.9945 26.8882 17.673 26.2649V15.7182C15.4959 12.4017 11.9039 8.62084 11.3378 4.66309H13.3189V0.241028M8.9649 10.1907C9.48738 11.2962 12.3175 14.6127 13.1012 15.5193L13.3189 15.7182V24.5624C11.9039 26.486 11.1419 28.8076 11.1419 31.1955C11.1419 33.5834 11.9039 35.905 13.3189 37.8286V40.0396H4.61087V37.8286C6.02593 35.905 6.78788 33.5834 6.78788 31.1955C6.78788 28.8076 6.02593 26.486 4.61087 24.5624V15.7182L4.82857 15.5193C5.6123 14.6127 8.44242 11.2962 8.9649 10.1907Z" fill="#E7C78F"/>
</svg>
