<svg width="35" height="45" viewBox="0 0 35 45" fill="none" xmlns="http://www.w3.org/2000/svg">
<path d="M32.224 11.4676H28.196C29.1385 9.86344 29.5016 7.90451 29.209 6.00116C28.9165 4.09781 27.9912 2.39772 26.6268 1.25699C25.2624 0.116258 23.5649 -0.376605 21.8898 -0.11836C20.2147 0.139885 18.692 1.1292 17.6406 2.64236C16.5893 1.1292 15.0665 0.139885 13.3914 -0.11836C11.7163 -0.376605 10.0188 0.116258 8.65446 1.25699C7.2901 2.39772 6.36474 4.09781 6.07221 6.00116C5.77969 7.90451 6.1427 9.86344 7.08521 11.4676H3.05729C2.28398 11.4685 1.54256 11.8201 0.99575 12.4453C0.448936 13.0705 0.141397 13.9182 0.140625 14.8023V21.4717C0.141397 22.3558 0.448936 23.2035 0.99575 23.8287C1.54256 24.4539 2.28398 24.8055 3.05729 24.8064V41.4798C3.05806 42.364 3.3656 43.2117 3.91242 43.8368C4.45923 44.462 5.20065 44.8136 5.97396 44.8145H29.3073C30.0806 44.8136 30.822 44.462 31.3688 43.8368C31.9156 43.2117 32.2232 42.364 32.224 41.4798V24.8064C32.9973 24.8055 33.7387 24.4539 34.2855 23.8287C34.8323 23.2035 35.1399 22.3558 35.1406 21.4717V14.8023C35.1399 13.9182 34.8323 13.0705 34.2855 12.4453C33.7387 11.8201 32.9973 11.4685 32.224 11.4676ZM19.099 7.29925C19.099 6.47483 19.3128 5.66892 19.7134 4.98344C20.114 4.29795 20.6834 3.76368 21.3496 3.44819C22.0158 3.1327 22.7488 3.05015 23.4561 3.21099C24.1633 3.37182 24.8129 3.76882 25.3228 4.35178C25.8327 4.93473 26.1799 5.67746 26.3206 6.48605C26.4612 7.29463 26.389 8.13275 26.1131 8.89442C25.8372 9.65609 25.3699 10.3071 24.7703 10.7651C24.1708 11.2231 23.4659 11.4676 22.7448 11.4676H19.099V7.29925ZM12.5365 3.13089C13.503 3.13222 14.4297 3.57181 15.1132 4.35324C15.7966 5.13467 16.1811 6.19414 16.1823 7.29925V11.4676H12.5365C11.5695 11.4676 10.6422 11.0285 9.95847 10.2467C9.27474 9.46501 8.89062 8.40477 8.89062 7.29925C8.89062 6.19374 9.27474 5.1335 9.95847 4.35178C10.6422 3.57006 11.5695 3.13089 12.5365 3.13089ZM3.05729 14.8023H16.1823V21.4717H3.05729V14.8023ZM5.97396 24.8064H16.1823V41.4798H5.97396V24.8064ZM29.3088 41.4798H19.099V24.8064H29.3073L29.3088 41.4798ZM19.099 21.4717V14.8023H32.224L32.2254 21.4717H19.099Z" fill="#E7C78F"/>
</svg>
