<svg width="80" height="25" viewBox="0 0 80 25" fill="none" xmlns="http://www.w3.org/2000/svg">
<path d="M30.7209 21.8082C27.7441 19.9781 23.7042 19.657 17.1889 21.3821C10.2432 22.9398 7.92739 23.9384 4.88609 21.9338C3.71769 20.9491 3.29879 19.3636 3.61159 17.0798C4.33709 13.3568 6.29769 9.77403 9.78019 5.79985C11.7241 3.7325 13.5272 1.95833 15.9082 1.2459C17.733 0.798969 17.5624 2.16763 17.3416 2.36337C17.1086 2.36337 16.7172 2.39839 16.4147 2.58679C16.1692 2.7685 15.4953 3.35524 15.4591 4.1445C15.4069 5.35273 16.7171 5.10126 17.2822 4.43788C17.8913 3.69032 18.7915 2.25877 18.0834 0.924564C17.7866 0.449671 17.2738 0.121464 16.6371 0.00970786C14.4569 -0.109206 12.4264 0.882667 10.5525 1.97924C6.45429 4.69622 3.17599 8.46101 1.32099 12.582C0.251492 15.0684 -0.715708 18.6301 0.734092 21.529C1.85559 23.5404 4.18399 24.6088 6.96189 24.3854C8.91019 24.19 11.2661 23.5891 12.8506 23.2262C14.4351 22.8628 22.546 20.2019 25.211 24.833C25.211 24.833 26.0972 23.1912 28.3119 23.1562C30.1327 22.9958 32.7594 23.6592 34.6723 25C34.035 24.0853 32.2282 22.7373 30.7209 21.8082Z" fill="#0F0F0F"/>
<path d="M18.016 6.26773C16.499 5.31785 13.45 7.13381 11.0079 10.2488C8.77466 13.0429 7.81036 16.2903 8.85976 17.792C10.4209 19.559 13.3189 16.9888 14.5513 15.6131L14.7103 15.4523C15.5484 14.5931 16.1959 13.5594 16.8226 12.5675C16.8226 12.5675 17.3986 11.6595 17.4261 11.6175C17.7821 11.5549 18.2109 11.4571 18.6941 11.3243C18.6872 11.3451 16.8454 14.2997 17.0333 15.7662C17.0918 16.2136 17.0471 17.8479 18.7191 18.3437C20.9475 18.7002 22.7269 17.0516 24.2967 15.5848C24.2967 15.5848 24.5642 15.3406 24.7155 15.2012C24.6772 15.3475 24.6273 15.5426 24.6273 15.5426C23.9749 17.7079 24.8543 18.1622 25.4044 18.3299C27.0669 18.7911 29.053 16.486 29.0594 16.486C29.0079 17.2121 28.8573 17.8128 29.6593 18.2948C30.4163 18.5534 31.1824 18.1591 31.7647 17.7889C33.8622 16.3781 35.552 14.17 36.9169 12.2612H36.0463C36.036 12.2612 33.898 15.2186 32.5097 15.8614C32.5075 15.8614 32.2549 15.9852 32.1093 15.8873C31.9291 15.7405 32.0002 15.4355 32.1115 15.2194C32.1185 15.2053 37.4718 6.34417 37.4718 6.34417H34.9442C34.9442 6.34417 34.6681 6.77049 34.6456 6.79845C34.6286 6.78452 34.5881 6.71122 34.56 6.6761C32.994 4.60875 29.4477 7.7887 26.7778 11.4764C25.7499 12.8944 24.4412 14.4909 23.0842 15.6433C23.0842 15.6433 21.0739 17.402 20.2149 16.1385C19.9009 15.6075 19.9975 14.8314 20.1746 14.3216C21.1747 11.6046 22.898 9.13884 24.859 7.65099C25.4126 7.23918 26.0143 7.12007 26.3129 7.29472C26.5974 7.45563 26.6433 7.85341 26.4633 8.12588C26.0066 8.11194 25.6407 8.24441 25.3432 8.53778C24.7572 9.12453 24.5536 9.69037 24.7399 10.2213C25.645 11.4505 27.4501 9.01983 27.3628 7.53913C27.3316 7.00822 27.0348 6.50546 26.5919 6.26076C25.9318 5.88378 24.9248 5.98142 24.2731 6.28195C23.4007 6.59612 22.0197 7.6926 21.2136 8.54485C20.1988 9.61364 18.4584 10.8009 17.9141 10.6679C18.0924 10.2137 19.5625 7.3432 18.016 6.26773ZM30.2021 10.5143C30.6938 9.86483 32.1249 8.12559 32.4738 7.83232C33.6472 6.84712 34.1162 7.2806 34.1568 7.58771C33.0617 9.45951 31.7692 11.6039 30.554 13.5317C30.5565 13.5248 30.1737 14.0834 30.1737 14.0834C29.637 14.8655 29.0966 15.5361 28.2151 16.004C28.0894 16.0391 27.8822 16.0531 27.7443 15.955C27.5783 15.8502 27.5128 15.6756 27.5315 15.4939C27.5843 14.8934 28.225 13.0568 30.2021 10.5143ZM16.4516 11.6387C16.4516 11.6387 16.4296 11.7018 16.4187 11.7224C16.4159 11.7224 15.3167 13.4334 15.3167 13.4334C14.6533 14.2787 13.825 15.3406 12.7896 15.8502C12.4827 15.9481 12.0585 16.0111 11.8423 15.7528C11.384 15.2289 11.6202 14.5025 11.8121 13.9158L11.88 13.7063C12.4302 12.2816 13.3032 11.0241 14.1529 9.85767C14.1635 9.8508 14.1873 9.84383 14.1959 9.84383C14.1979 9.8508 14.2013 9.8508 14.2028 9.86483C14.736 10.8425 15.7358 11.2963 16.4835 11.5062C16.488 11.5062 16.4928 11.5131 16.4928 11.5271C16.4929 11.548 16.4807 11.5761 16.4516 11.6387ZM17.493 9.62042C17.4882 9.63435 17.0034 10.6959 17.0034 10.6959C16.9333 10.7517 16.8225 10.7239 16.6955 10.6959L16.4779 10.6608C15.7946 10.4584 15.2792 10.0253 15.1203 9.50847C14.9011 8.50266 15.8014 7.7134 16.1981 7.42719C16.5787 7.17552 17.1704 7.04286 17.514 7.3014C17.7259 7.53894 17.8062 7.84615 17.8062 8.18161C17.8063 8.63551 17.6595 9.14533 17.493 9.62042Z" fill="#0F0F0F"/>
<path d="M49.447 12.861C49.2033 12.3582 48.6247 12.0369 48.0081 12.0717C46.0058 12.2465 44.0473 13.8179 43.019 16.0738C42.4794 17.2333 42.1849 18.1901 41.9918 19.7127C42.6144 19.0284 43.8844 17.904 45.3256 17.2893C45.3256 17.2893 45.5217 15.8296 46.5217 14.5304C46.9001 13.9924 47.6574 13.1264 48.5077 13.3568C49.2506 13.5944 48.9895 15.5571 48.0021 17.4565C47.2715 18.8536 46.1535 20.2508 45.0223 21.2145C44.0222 22.0247 42.5425 23.0025 41.2479 22.2482C40.4325 21.7875 40.0166 20.8234 40.1045 19.5801C40.4941 16.0531 42.1764 13.0497 44.5839 9.62731C47.0663 6.44937 49.8027 3.18763 53.489 1.4482C54.2409 1.08506 54.9372 1.00127 55.5391 1.22478C55.5391 1.22478 52.0787 3.04075 50.4292 6.40041C50.0096 7.25266 49.426 8.40477 50.0137 9.42461C50.3208 9.95533 50.8661 9.99732 51.3051 9.96936C53.327 9.52224 54.6333 7.7203 55.7006 6.07211C56.3194 4.82189 56.8694 3.57863 56.8694 2.19566C56.8694 2.02807 56.8603 1.80465 56.8454 1.63688C57.8114 1.14814 59.7922 2.01404 59.7922 2.01404C61.3401 2.50315 64.636 4.91293 65.7478 5.3737C66.2901 4.77312 67.1813 3.86523 67.6831 3.41114L66.9567 2.98501C65.7937 2.30751 64.5644 1.66484 63.3544 1.02933C60.6065 -0.40232 58.3698 0.100441 57.2314 0.491636C56.784 0.645193 56.3751 0.777946 56.3751 0.777946C55.5303 -0.102076 54.1448 -0.0184735 53.1239 0.219164C49.4525 1.22488 46.0438 3.67636 42.3893 7.93007C39.7025 11.2618 38.0359 14.1395 37.1476 16.982C36.4629 18.8956 36.2548 21.7105 37.926 23.3798C39.3469 24.7973 41.231 24.4902 42.5615 23.9805C45.4442 22.6255 48.0351 19.7058 49.3261 16.3462C49.6376 15.3476 49.9834 13.9368 49.447 12.861ZM56.0756 2.33547C55.694 6.51226 52.2921 8.96403 51.4504 9.15929C50.9403 9.25692 50.0699 9.04057 50.8469 7.28768C51.9912 4.92667 53.9448 2.92231 56.0409 1.89551C56.0919 2.07016 56.0906 2.18163 56.0756 2.33547Z" fill="#0F0F0F"/>
<path d="M76.2555 2.86621C74.4256 3.85818 72.5287 4.50057 70.2324 4.27715C69.596 4.96181 68.9764 5.66718 68.4053 6.39346C71.6282 7.17575 75.045 5.43661 76.9505 3.78145C78.9663 2.11207 80 0.0098877 80 0.0098877C80 0.0098877 78.489 1.65808 76.2555 2.86621Z" fill="#0F0F0F"/>
<path d="M40.3184 8.44385L41.6729 6.34424H39.2725L37.9185 8.44385H40.3184Z" fill="#0F0F0F"/>
<path d="M70.2228 22.0026C69.9647 22.1702 69.6021 22.0414 69.7377 21.6573C70.0754 20.6795 71.418 18.6868 71.418 18.6868L75.1576 12.3568H72.596C72.4743 12.5477 72.2139 12.986 72.2139 12.986C72.0954 12.7977 71.741 12.3787 71.5951 12.2882C70.9693 11.9108 70.0511 12.0892 69.4177 12.4314C66.6638 13.9682 64.6545 17.0045 63.0699 19.3724C63.0699 19.3724 61.4018 22.0045 60.4758 22.2003C59.7529 22.2562 59.8275 21.3268 59.8588 21.1103C60.1383 19.5455 60.7874 18.0579 61.4414 16.7099C62.7715 15.8299 64.2895 14.6775 65.669 13.4133C68.6628 10.6821 71.1867 7.58796 71.5556 6.89652C71.5556 6.89652 71.1563 6.97344 70.6848 6.98728C68.3816 10.0535 63.6684 14.5098 62.2395 15.1732C62.8725 13.7201 66.9622 6.78467 70.4425 3.4671L70.9902 2.96405C71.837 2.17479 72.7145 1.36463 73.3983 1.23187C73.4705 1.22491 73.5635 1.23187 73.6438 1.39278C73.6743 2.0073 73.4346 2.46139 73.1596 2.97817L72.7742 3.7326C72.7742 3.7326 73.3201 3.63478 73.6786 3.52274C74.0946 2.77575 74.5553 1.93734 74.3855 0.938788C74.3288 0.617453 74.0851 0.37304 73.7666 0.317114C72.7284 0.128531 71.5969 0.861676 70.6865 1.45558L70.6497 1.47638C65.9696 4.97567 62.0176 10.0185 58.5625 16.9053C58.3121 17.0867 57.3446 17.3034 57.1801 17.1985C57.5213 16.5282 57.9509 15.627 58.1659 14.6491C58.2031 14.3697 58.2377 14.0835 58.2377 13.8041C58.2377 13.203 58.0865 12.6374 57.5222 12.2464C56.8606 11.932 56.0429 12.0788 55.4916 12.3162C53.0218 13.294 51.1759 15.7109 49.8439 17.7012C49.1275 18.9657 48.4132 20.3201 48.2154 21.8709C48.0761 23.086 48.3597 23.8683 49.0836 24.2596C49.8281 24.6225 50.7651 24.2453 51.1332 24.0639C53.6353 22.8067 55.3835 20.2854 56.7616 17.9803C56.8164 17.9735 57.5688 17.9527 58.1379 17.8128C58.1455 17.8128 58.1487 17.8128 58.1613 17.8201C58.1287 17.9244 57.8346 18.7628 57.8346 18.7628C56.9612 21.2073 56.5573 22.8698 57.3823 23.8544C58.5612 25.2444 60.5129 23.8057 62.1006 21.9056C61.7598 24.1825 62.9963 24.5389 63.9388 24.3644C65.0215 24.0851 66.228 22.9813 66.7879 22.4158C66.6081 23.0791 66.657 24.2667 67.6419 24.3853C68.317 24.5044 68.8222 24.154 69.4068 23.8535C71.5037 22.7638 74.0138 19.1327 74.6655 18.0829H73.811C72.8846 19.4191 71.7057 21.1711 70.2228 22.0026ZM51.401 21.7594C51.268 21.5709 51.2239 21.3646 51.2195 21.1417C51.194 19.7722 52.7379 17.3195 53.8277 15.9834C53.83 15.9834 53.83 15.9834 53.83 15.9834C54.2867 16.9378 55.3209 17.5513 55.9452 17.8098C55.1698 19.4583 52.5105 22.9887 51.401 21.7594ZM56.3828 17.0728C56.3089 17.122 55.0048 16.7027 54.7528 15.5503C54.539 14.5582 55.2549 13.7829 55.9475 13.3921C56.2448 13.1685 56.6926 13.0919 57.0211 13.2032C57.326 13.399 57.4086 13.7485 57.4086 14.1251C57.4086 14.356 57.3765 14.5933 57.3482 14.8097C57.3482 14.8097 57.3428 14.8518 57.3419 14.8588C57.1246 15.6338 56.7921 16.3952 56.3828 17.0728ZM66.8424 21.3195C66.8413 21.3195 66.595 21.529 66.595 21.529C66.2432 21.8291 65.8812 22.1505 65.4442 21.9897C65.3235 21.9478 65.2386 21.7944 65.2182 21.6753C65.1983 20.8162 65.6037 20.0201 65.9968 19.245L66.0976 19.0423C67.2284 17.2403 68.5428 15.1171 70.4732 13.6435C70.7985 13.4195 71.1515 13.2313 71.5241 13.3781C71.6098 13.4547 71.7096 13.5876 71.7096 13.7201C71.7096 13.7622 71.6705 13.8739 71.6479 13.9086C71.1088 14.7402 70.5953 15.6131 70.096 16.4512C69.1202 18.1066 68.1079 19.8176 66.8424 21.3195Z" fill="#0F0F0F"/>
</svg>
