<svg width="80" height="25" viewBox="0 0 80 25" fill="none" xmlns="http://www.w3.org/2000/svg">
<path d="M30.7209 21.8082C27.7441 19.9781 23.7042 19.657 17.1889 21.3821C10.2432 22.9398 7.92739 23.9384 4.88609 21.9338C3.71769 20.9491 3.29879 19.3636 3.61159 17.0798C4.33709 13.3568 6.29769 9.77403 9.78019 5.79985C11.7241 3.7325 13.5272 1.95833 15.9082 1.2459C17.733 0.798969 17.5624 2.16763 17.3416 2.36337C17.1086 2.36337 16.7172 2.39839 16.4147 2.58679C16.1692 2.7685 15.4953 3.35524 15.4591 4.1445C15.4069 5.35273 16.7171 5.10126 17.2822 4.43788C17.8913 3.69032 18.7915 2.25877 18.0834 0.924564C17.7866 0.449671 17.2738 0.121464 16.6371 0.00970786C14.4569 -0.109206 12.4264 0.882667 10.5525 1.97924C6.45429 4.69622 3.17599 8.46101 1.32099 12.582C0.251492 15.0684 -0.715708 18.6301 0.734092 21.529C1.85559 23.5404 4.18399 24.6088 6.96189 24.3854C8.91019 24.19 11.2661 23.5891 12.8506 23.2262C14.4351 22.8628 22.546 20.2019 25.211 24.833C25.211 24.833 26.0972 23.1912 28.3119 23.1562C30.1327 22.9958 32.7594 23.6592 34.6723 25C34.035 24.0853 32.2282 22.7373 30.7209 21.8082Z" fill="white"/>
<path d="M18.016 6.26779C16.499 5.31791 13.45 7.13388 11.0079 10.2488C8.77466 13.0429 7.81036 16.2904 8.85976 17.7921C10.4209 19.5591 13.3189 16.9889 14.5513 15.6131L14.7103 15.4523C15.5484 14.5932 16.1959 13.5594 16.8226 12.5676C16.8226 12.5676 17.3986 11.6596 17.4261 11.6176C17.7821 11.555 18.2109 11.4572 18.6941 11.3244C18.6872 11.3452 16.8454 14.2997 17.0333 15.7662C17.0918 16.2136 17.0471 17.848 18.7191 18.3438C20.9475 18.7002 22.7269 17.0517 24.2967 15.5849C24.2967 15.5849 24.5642 15.3407 24.7155 15.2012C24.6772 15.3475 24.6273 15.5427 24.6273 15.5427C23.9749 17.708 24.8543 18.1623 25.4044 18.3299C27.0669 18.7912 29.053 16.4861 29.0594 16.4861C29.0079 17.2122 28.8573 17.8129 29.6593 18.2948C30.4163 18.5534 31.1824 18.1592 31.7647 17.789C33.8622 16.3782 35.552 14.17 36.9169 12.2613H36.0463C36.036 12.2613 33.898 15.2187 32.5097 15.8615C32.5075 15.8615 32.2549 15.9852 32.1093 15.8873C31.9291 15.7405 32.0002 15.4355 32.1115 15.2195C32.1185 15.2053 37.4718 6.34423 37.4718 6.34423H34.9442C34.9442 6.34423 34.6681 6.77055 34.6456 6.79851C34.6286 6.78458 34.5881 6.71128 34.56 6.67616C32.994 4.60881 29.4477 7.78876 26.7778 11.4764C25.7499 12.8944 24.4412 14.491 23.0842 15.6434C23.0842 15.6434 21.0739 17.4021 20.2149 16.1385C19.9009 15.6076 19.9975 14.8314 20.1746 14.3217C21.1747 11.6047 22.898 9.1389 24.859 7.65105C25.4126 7.23924 26.0143 7.12013 26.3129 7.29478C26.5974 7.45569 26.6433 7.85347 26.4633 8.12594C26.0066 8.11201 25.6407 8.24447 25.3432 8.53784C24.7572 9.12459 24.5536 9.69043 24.7399 10.2213C25.645 11.4506 27.4501 9.0199 27.3628 7.5392C27.3316 7.00828 27.0348 6.50552 26.5919 6.26082C25.9318 5.88385 24.9248 5.98148 24.2731 6.28201C23.4007 6.59618 22.0197 7.69266 21.2136 8.54491C20.1988 9.6137 18.4584 10.8009 17.9141 10.668C18.0924 10.2138 19.5625 7.34326 18.016 6.26779ZM30.2021 10.5143C30.6938 9.86489 32.1249 8.12565 32.4738 7.83238C33.6472 6.84718 34.1162 7.28066 34.1568 7.58777C33.0617 9.45957 31.7692 11.6039 30.554 13.5318C30.5565 13.5249 30.1737 14.0835 30.1737 14.0835C29.637 14.8656 29.0966 15.5361 28.2151 16.004C28.0894 16.0392 27.8822 16.0532 27.7443 15.9551C27.5783 15.8503 27.5128 15.6757 27.5315 15.4939C27.5843 14.8935 28.225 13.0569 30.2021 10.5143ZM16.4516 11.6388C16.4516 11.6388 16.4296 11.7019 16.4187 11.7225C16.4159 11.7225 15.3167 13.4335 15.3167 13.4335C14.6533 14.2787 13.825 15.3407 12.7896 15.8503C12.4827 15.9481 12.0585 16.0111 11.8423 15.7529C11.384 15.2289 11.6202 14.5025 11.8121 13.9159L11.88 13.7063C12.4302 12.2816 13.3032 11.0242 14.1529 9.85773C14.1635 9.85086 14.1873 9.8439 14.1959 9.8439C14.1979 9.85086 14.2013 9.85086 14.2028 9.86489C14.736 10.8425 15.7358 11.2963 16.4835 11.5062C16.488 11.5062 16.4928 11.5132 16.4928 11.5272C16.4929 11.548 16.4807 11.5762 16.4516 11.6388ZM17.493 9.62048C17.4882 9.63441 17.0034 10.696 17.0034 10.696C16.9333 10.7518 16.8225 10.7239 16.6955 10.696L16.4779 10.6608C15.7946 10.4584 15.2792 10.0253 15.1203 9.50853C14.9011 8.50272 15.8014 7.71346 16.1981 7.42725C16.5787 7.17558 17.1704 7.04292 17.514 7.30146C17.7259 7.539 17.8062 7.84621 17.8062 8.18167C17.8063 8.63557 17.6595 9.14539 17.493 9.62048Z" fill="white"/>
<path d="M49.447 12.8612C49.2033 12.3584 48.6247 12.0371 48.0081 12.0719C46.0058 12.2467 44.0473 13.8181 43.019 16.074C42.4794 17.2335 42.1849 18.1903 41.9918 19.7129C42.6144 19.0286 43.8844 17.9041 45.3256 17.2894C45.3256 17.2894 45.5217 15.8297 46.5217 14.5306C46.9001 13.9926 47.6574 13.1266 48.5077 13.357C49.2506 13.5946 48.9895 15.5573 48.0021 17.4566C47.2715 18.8537 46.1535 20.251 45.0223 21.2147C44.0222 22.0249 42.5425 23.0027 41.2479 22.2484C40.4325 21.7877 40.0166 20.8236 40.1045 19.5803C40.4941 16.0532 42.1764 13.0499 44.5839 9.6275C47.0663 6.44955 49.8027 3.18781 53.489 1.44838C54.2409 1.08524 54.9372 1.00145 55.5391 1.22496C55.5391 1.22496 52.0787 3.04093 50.4292 6.40059C50.0096 7.25284 49.426 8.40495 50.0137 9.42479C50.3208 9.95551 50.8661 9.99751 51.3051 9.96954C53.327 9.52242 54.6333 7.72048 55.7006 6.07229C56.3194 4.82207 56.8694 3.57881 56.8694 2.19584C56.8694 2.02825 56.8603 1.80484 56.8454 1.63706C57.8114 1.14833 59.7922 2.01423 59.7922 2.01423C61.3401 2.50334 64.636 4.91311 65.7478 5.37388C66.2901 4.7733 67.1813 3.86541 67.6831 3.41132L66.9567 2.9852C65.7937 2.30769 64.5644 1.66502 63.3544 1.02951C60.6065 -0.402137 58.3698 0.100624 57.2314 0.491819C56.784 0.645376 56.3751 0.778129 56.3751 0.778129C55.5303 -0.101893 54.1448 -0.0182904 53.1239 0.219347C49.4525 1.22506 46.0438 3.67654 42.3893 7.93025C39.7025 11.2619 38.0359 14.1396 37.1476 16.9822C36.4629 18.8958 36.2548 21.7106 37.926 23.38C39.3469 24.7974 41.231 24.4904 42.5615 23.9807C45.4442 22.6257 48.0351 19.706 49.3261 16.3464C49.6376 15.3478 49.9834 13.9369 49.447 12.8612ZM56.0756 2.33566C55.694 6.51244 52.2921 8.96421 51.4504 9.15948C50.9403 9.25711 50.0699 9.04075 50.8469 7.28787C51.9912 4.92686 53.9448 2.9225 56.0409 1.89569C56.0919 2.07034 56.0906 2.18181 56.0756 2.33566Z" fill="white"/>
<path d="M76.2555 2.86609C74.4256 3.85806 72.5287 4.50044 70.2324 4.27703C69.596 4.96169 68.9764 5.66706 68.4053 6.39334C71.6282 7.17563 75.045 5.43649 76.9505 3.78133C78.9663 2.11195 80 0.00976562 80 0.00976562C80 0.00976562 78.489 1.65796 76.2555 2.86609Z" fill="white"/>
<path d="M40.3184 8.44385L41.6729 6.34424H39.2725L37.9185 8.44385H40.3184Z" fill="white"/>
<path d="M70.2228 22.0028C69.9647 22.1704 69.6021 22.0415 69.7377 21.6575C70.0754 20.6797 71.418 18.687 71.418 18.687L75.1576 12.357H72.596C72.4743 12.5479 72.2139 12.9862 72.2139 12.9862C72.0954 12.7978 71.741 12.3789 71.5951 12.2884C70.9693 11.9109 70.0511 12.0894 69.4177 12.4316C66.6638 13.9684 64.6545 17.0047 63.0699 19.3726C63.0699 19.3726 61.4018 22.0047 60.4758 22.2005C59.7529 22.2564 59.8275 21.327 59.8588 21.1105C60.1383 19.5457 60.7874 18.0581 61.4414 16.7101C62.7715 15.8301 64.2895 14.6777 65.669 13.4135C68.6628 10.6823 71.1867 7.58814 71.5556 6.8967C71.5556 6.8967 71.1563 6.97362 70.6848 6.98746C68.3816 10.0537 63.6684 14.51 62.2395 15.1734C62.8725 13.7203 66.9622 6.78485 70.4425 3.46728L70.9902 2.96423C71.837 2.17497 72.7145 1.36481 73.3983 1.23206C73.4705 1.22509 73.5635 1.23206 73.6438 1.39296C73.6743 2.00748 73.4346 2.46157 73.1596 2.97836L72.7742 3.73279C72.7742 3.73279 73.3201 3.63496 73.6786 3.52292C74.0946 2.77594 74.5553 1.93753 74.3855 0.938972C74.3288 0.617636 74.0851 0.373223 73.7666 0.317297C72.7284 0.128714 71.5969 0.861859 70.6865 1.45576L70.6497 1.47657C65.9696 4.97585 62.0176 10.0187 58.5625 16.9055C58.3121 17.0869 57.3446 17.3036 57.1801 17.1987C57.5213 16.5284 57.9509 15.6272 58.1659 14.6493C58.2031 14.3699 58.2377 14.0837 58.2377 13.8043C58.2377 13.2032 58.0865 12.6376 57.5222 12.2466C56.8606 11.9322 56.0429 12.079 55.4916 12.3164C53.0218 13.2942 51.1759 15.711 49.8439 17.7014C49.1275 18.9659 48.4132 20.3203 48.2154 21.8711C48.0761 23.0862 48.3597 23.8685 49.0836 24.2598C49.8281 24.6227 50.7651 24.2455 51.1332 24.064C53.6353 22.8069 55.3835 20.2856 56.7616 17.9805C56.8164 17.9737 57.5688 17.9529 58.1379 17.8129C58.1455 17.8129 58.1487 17.8129 58.1613 17.8203C58.1287 17.9246 57.8346 18.763 57.8346 18.763C56.9612 21.2074 56.5573 22.8699 57.3823 23.8546C58.5612 25.2446 60.5129 23.8059 62.1006 21.9057C61.7598 24.1827 62.9963 24.539 63.9388 24.3646C65.0215 24.0853 66.228 22.9815 66.7879 22.4159C66.6081 23.0793 66.657 24.2668 67.6419 24.3855C68.317 24.5046 68.8222 24.1541 69.4068 23.8537C71.5037 22.764 74.0138 19.1329 74.6655 18.0831H73.811C72.8846 19.4193 71.7057 21.1713 70.2228 22.0028ZM51.401 21.7596C51.268 21.571 51.2239 21.3648 51.2195 21.1419C51.194 19.7724 52.7379 17.3197 53.8277 15.9836C53.83 15.9836 53.83 15.9836 53.83 15.9836C54.2867 16.938 55.3209 17.5514 55.9452 17.81C55.1698 19.4585 52.5105 22.9889 51.401 21.7596ZM56.3828 17.073C56.3089 17.1222 55.0048 16.7029 54.7528 15.5505C54.539 14.5584 55.2549 13.7831 55.9475 13.3923C56.2448 13.1687 56.6926 13.0921 57.0211 13.2033C57.326 13.3992 57.4086 13.7487 57.4086 14.1253C57.4086 14.3562 57.3765 14.5935 57.3482 14.8099C57.3482 14.8099 57.3428 14.852 57.3419 14.859C57.1246 15.634 56.7921 16.3954 56.3828 17.073ZM66.8424 21.3197C66.8413 21.3197 66.595 21.5292 66.595 21.5292C66.2432 21.8293 65.8812 22.1506 65.4442 21.9899C65.3235 21.948 65.2386 21.7946 65.2182 21.6755C65.1983 20.8163 65.6037 20.0203 65.9968 19.2452L66.0976 19.0425C67.2284 17.2405 68.5428 15.1172 70.4732 13.6437C70.7985 13.4197 71.1515 13.2315 71.5241 13.3783C71.6098 13.4549 71.7096 13.5878 71.7096 13.7203C71.7096 13.7624 71.6705 13.8741 71.6479 13.9088C71.1088 14.7404 70.5953 15.6133 70.096 16.4513C69.1202 18.1068 68.1079 19.8178 66.8424 21.3197Z" fill="white"/>
</svg>
