<svg width="38" height="31" viewBox="0 0 38 31" fill="none" xmlns="http://www.w3.org/2000/svg">
<mask id="mask0_1_84" style="mask-type:luminance" maskUnits="userSpaceOnUse" x="0" y="0" width="38" height="31">
<path d="M38 0H0V31H38V0Z" fill="white"/>
</mask>
<g mask="url(#mask0_1_84)">
<path d="M38.0777 9.26201C37.9096 6.85414 36.8383 4.60033 35.0804 2.95651C33.3226 1.31269 31.0094 0.401579 28.6088 0.407499H9.67117C7.24291 0.404196 4.90619 1.33906 3.14394 3.01887C1.38169 4.69868 0.328613 6.99505 0.202346 9.43339C0.191666 9.59825 0.191666 9.76363 0.202346 9.92848V24.21C0.19732 25.0866 0.365333 25.9555 0.69665 26.7664C1.02797 27.5773 1.516 28.314 2.13249 28.9339C2.74898 29.5537 3.48166 30.0445 4.2881 30.3776C5.09453 30.7108 5.9587 30.8797 6.83053 30.8746C9.53861 30.8746 11.2241 28.8562 12.8716 26.8949C13.4776 26.1903 14.1026 25.4477 14.7654 24.8003C15.6447 24.1526 16.6325 23.6689 17.6818 23.3721C18.6506 23.2579 19.6294 23.2579 20.5982 23.3721C21.6475 23.6689 22.6353 24.1526 23.5146 24.8003C24.1774 25.4477 24.8024 26.1903 25.4084 26.8949C27.0559 28.7991 28.7414 30.8746 31.4495 30.8746C32.3213 30.8797 33.1855 30.7108 33.9919 30.3776C34.7983 30.0445 35.531 29.5537 36.1475 28.9339C36.764 28.314 37.252 27.5773 37.5834 26.7664C37.9147 25.9555 38.0827 25.0866 38.0777 24.21V9.92848C38.0879 9.76361 38.0879 9.59826 38.0777 9.43339V9.26201ZM34.2901 24.21C34.2901 24.9675 33.9908 25.694 33.4581 26.2297C32.9254 26.7653 32.2029 27.0662 31.4495 27.0662C30.5026 27.0662 29.5557 25.8476 28.3058 24.4385C27.6619 23.6958 26.9423 22.8199 26.128 22.0392C24.7568 20.9284 23.17 20.1177 21.4693 19.6589C19.9289 19.3796 18.3511 19.3796 16.8107 19.6589C15.11 20.1177 13.5232 20.9284 12.152 22.0392C11.3377 22.8199 10.6181 23.6958 9.97418 24.4385C8.80004 25.8476 7.77741 27.0662 6.83053 27.0662C6.07714 27.0662 5.35461 26.7653 4.82188 26.2297C4.28916 25.694 3.98988 24.9675 3.98988 24.21V9.92848C3.99912 9.8335 3.99912 9.73784 3.98988 9.64285C4.06282 8.17783 4.69343 6.79715 5.75108 5.78685C6.80872 4.77655 8.21235 4.21406 9.67117 4.21589H28.6088C30.0281 4.20966 31.3983 4.7378 32.4497 5.69635C33.5011 6.6549 34.1577 7.97446 34.2901 9.39531V9.62381C34.2807 9.72515 34.2807 9.82715 34.2901 9.92848V24.21Z" fill="#E7C78F"/>
<path d="M26.7151 17.5453C27.761 17.5453 28.6088 16.6927 28.6088 15.6411C28.6088 14.5894 27.761 13.7369 26.7151 13.7369C25.6692 13.7369 24.8213 14.5894 24.8213 15.6411C24.8213 16.6927 25.6692 17.5453 26.7151 17.5453Z" fill="#E7C78F"/>
<path d="M30.5031 13.7369C31.549 13.7369 32.3969 12.8843 32.3969 11.8327C32.3969 10.781 31.549 9.92847 30.5031 9.92847C29.4572 9.92847 28.6094 10.781 28.6094 11.8327C28.6094 12.8843 29.4572 13.7369 30.5031 13.7369Z" fill="#E7C78F"/>
<path d="M26.7151 9.92851C27.761 9.92851 28.6088 9.07597 28.6088 8.02431C28.6088 6.97265 27.761 6.12012 26.7151 6.12012C25.6692 6.12012 24.8213 6.97265 24.8213 8.02431C24.8213 9.07597 25.6692 9.92851 26.7151 9.92851Z" fill="#E7C78F"/>
<path d="M22.9279 13.7369C23.9738 13.7369 24.8217 12.8843 24.8217 11.8327C24.8217 10.781 23.9738 9.92847 22.9279 9.92847C21.882 9.92847 21.0342 10.781 21.0342 11.8327C21.0342 12.8843 21.882 13.7369 22.9279 13.7369Z" fill="#E7C78F"/>
<path d="M11.5649 15.6411C13.6567 15.6411 15.3524 13.936 15.3524 11.8327C15.3524 9.72937 13.6567 8.02429 11.5649 8.02429C9.47308 8.02429 7.77734 9.72937 7.77734 11.8327C7.77734 13.936 9.47308 15.6411 11.5649 15.6411Z" fill="#E7C78F"/>
</g>
</svg>
