<svg width="17" height="17" viewBox="0 0 17 17" fill="none" xmlns="http://www.w3.org/2000/svg">
<path d="M8.57104 16C12.7132 16 16.0711 12.6421 16.0711 8.5C16.0711 4.35786 12.7132 1 8.57104 1C4.42891 1 1.07104 4.35786 1.07104 8.5C1.07104 12.6421 4.42891 16 8.57104 16Z" stroke="#0F0F0F" stroke-linecap="round" stroke-linejoin="round"/>
<path d="M1.57104 6H15.5711M1.57104 11H15.5711M8.15438 1C6.7505 3.24968 6.00622 5.84822 6.00622 8.5C6.00622 11.1518 6.7505 13.7503 8.15438 16M8.98771 1C10.3916 3.24968 11.1359 5.84822 11.1359 8.5C11.1359 11.1518 10.3916 13.7503 8.98771 16" stroke="#0F0F0F" stroke-linecap="round" stroke-linejoin="round"/>
</svg>
