<svg width="60" height="42" viewBox="0 0 60 42" fill="none" xmlns="http://www.w3.org/2000/svg">
<path d="M58.6759 6.57696C58.3317 5.30574 57.6604 4.14681 56.7287 3.21557C55.7971 2.28434 54.6376 1.61328 53.3658 1.26924C48.7096 0 29.9701 0 29.9701 0C29.9701 0 11.2296 0.0384191 6.57344 1.30766C5.30158 1.65172 4.14209 2.32281 3.21044 3.25409C2.27878 4.18537 1.60747 5.34435 1.26335 6.61561C-0.145036 14.8847 -0.691373 27.4848 1.30202 35.423C1.64618 36.6943 2.3175 37.8532 3.24916 38.7844C4.18081 39.7157 5.34028 40.3867 6.61211 40.7308C11.2683 42 30.0083 42 30.0083 42C30.0083 42 48.7481 42 53.404 40.7308C54.6759 40.3868 55.8354 39.7157 56.7671 38.7845C57.6988 37.8532 58.3701 36.6943 58.7143 35.423C60.1998 27.1423 60.6576 14.5499 58.6759 6.57696Z" fill="#FF0000"/>
<path d="M24.0059 29.9998L39.5517 20.9999L24.0059 11.9999V29.9998Z" fill="white"/>
</svg>
