<svg width="150" height="45" viewBox="0 0 150 45" fill="none" xmlns="http://www.w3.org/2000/svg">
<path d="M144.663 45H5.25444C2.35778 45 0 42.606 0 39.6754V5.31675C0 2.385 2.35778 0 5.25444 0H144.663C147.559 0 150 2.385 150 5.31675V39.6754C150 42.606 147.559 45 144.663 45Z" fill="#A6A6A6"/>
<path d="M148.924 39.6753C148.924 42.0558 147.019 43.984 144.664 43.984H5.25384C2.89939 43.984 0.988281 42.0558 0.988281 39.6753V5.31437C0.988281 2.935 2.89939 1 5.25384 1H144.663C147.019 1 148.923 2.935 148.923 5.31437L148.924 39.6753Z" fill="#E7C78F"/>
<path d="M33.4752 22.257C33.443 18.6311 36.4074 16.8671 36.543 16.785C34.8641 14.3066 32.2619 13.968 31.3474 13.941C29.1619 13.7081 27.0419 15.2651 25.9286 15.2651C24.793 15.2651 23.0786 13.9635 21.2308 14.0017C18.853 14.0389 16.6286 15.4327 15.4086 17.5972C12.8908 22.0106 14.7686 28.4962 17.1808 32.0636C18.3874 33.8107 19.7974 35.7615 21.643 35.6929C23.4486 35.6175 24.123 34.5274 26.3019 34.5274C28.4608 34.5274 29.0941 35.6929 30.9763 35.649C32.9141 35.6175 34.1341 33.894 35.2985 32.1311C36.693 30.1286 37.253 28.1565 37.2752 28.0552C37.2297 28.0395 33.5119 26.6029 33.4752 22.257Z" fill="black"/>
<path d="M29.92 11.5942C30.8912 10.3646 31.5556 8.6917 31.3712 6.99408C29.9656 7.05708 28.2078 7.97845 27.1956 9.18108C26.3 10.2408 25.5 11.9778 25.7067 13.6113C27.2856 13.7306 28.9067 12.8047 29.92 11.5942Z" fill="black"/>
<path d="M59.6054 35.442H57.0821L55.6998 31.0443H50.8954L49.5787 35.442H47.1221L51.8821 20.4705H54.8221L59.6054 35.442ZM55.2832 29.1993L54.0332 25.29C53.901 24.8906 53.6532 23.9501 53.2876 22.4696H53.2432C53.0976 23.1063 52.8632 24.0468 52.541 25.29L51.3132 29.1993H55.2832Z" fill="black"/>
<path d="M71.8469 29.9115C71.8469 31.7475 71.3569 33.1987 70.3769 34.2641C69.4991 35.2125 68.4091 35.6861 67.108 35.6861C65.7035 35.6861 64.6947 35.1754 64.0802 34.1539H64.0358V39.8407H61.6669V28.2004C61.6669 27.0461 61.6369 25.8615 61.5791 24.6465H63.6624L63.7947 26.3576H63.8391C64.6291 25.0684 65.828 24.4249 67.4369 24.4249C68.6947 24.4249 69.7447 24.9277 70.5847 25.9346C71.4269 26.9426 71.8469 28.2679 71.8469 29.9115ZM69.4335 29.9992C69.4335 28.9485 69.2002 28.0822 68.7313 27.4005C68.2191 26.6895 67.5313 26.334 66.6691 26.334C66.0847 26.334 65.5535 26.532 65.0791 26.9224C64.6035 27.3161 64.2924 27.8302 64.1469 28.467C64.0735 28.764 64.0369 29.007 64.0369 29.1982V30.9982C64.0369 31.7835 64.2747 32.4461 64.7502 32.9872C65.2258 33.5284 65.8435 33.7984 66.6035 33.7984C67.4958 33.7984 68.1902 33.4496 68.6869 32.7544C69.1847 32.058 69.4335 31.14 69.4335 29.9992Z" fill="black"/>
<path d="M84.1104 29.9115C84.1104 31.7475 83.6204 33.1987 82.6393 34.2641C81.7626 35.2125 80.6726 35.6861 79.3715 35.6861C77.9671 35.6861 76.9582 35.1754 76.3449 34.1539H76.3004V39.8407H73.9315V28.2004C73.9315 27.0461 73.9015 25.8615 73.8438 24.6465H75.9271L76.0593 26.3576H76.1037C76.8926 25.0684 78.0915 24.4249 79.7015 24.4249C80.9582 24.4249 82.0082 24.9277 82.8504 25.9346C83.6893 26.9426 84.1104 28.2679 84.1104 29.9115ZM81.6971 29.9992C81.6971 28.9485 81.4626 28.0822 80.9937 27.4005C80.4815 26.6895 79.796 26.334 78.9326 26.334C78.3471 26.334 77.8171 26.532 77.3415 26.9224C76.866 27.3161 76.556 27.8302 76.4104 28.467C76.3382 28.764 76.3004 29.007 76.3004 29.1982V30.9982C76.3004 31.7835 76.5382 32.4461 77.0115 32.9872C77.4871 33.5272 78.1049 33.7984 78.8671 33.7984C79.7593 33.7984 80.4538 33.4496 80.9504 32.7544C81.4482 32.058 81.6971 31.14 81.6971 29.9992Z" fill="black"/>
<path d="M97.8208 31.2435C97.8208 32.517 97.3841 33.5531 96.5075 34.353C95.5441 35.2271 94.203 35.6636 92.4797 35.6636C90.8886 35.6636 89.613 35.3531 88.6475 34.731L89.1964 32.7318C90.2364 33.3686 91.3775 33.6881 92.6208 33.6881C93.513 33.6881 94.2075 33.4833 94.7064 33.0761C95.203 32.6688 95.4508 32.1221 95.4508 31.4403C95.4508 30.8328 95.2463 30.321 94.8363 29.9058C94.4286 29.4907 93.7475 29.1048 92.7964 28.7482C90.2075 27.7706 88.9141 26.3385 88.9141 24.4552C88.9141 23.2245 89.3675 22.2153 90.2752 21.4301C91.1797 20.6437 92.3863 20.2511 93.8952 20.2511C95.2408 20.2511 96.3586 20.4885 97.2508 20.9621L96.6586 22.9173C95.8252 22.4583 94.883 22.2289 93.8286 22.2289C92.9952 22.2289 92.3441 22.437 91.8775 22.851C91.483 23.2211 91.2852 23.6722 91.2852 24.2066C91.2852 24.7983 91.5108 25.2877 91.9641 25.6725C92.3586 26.028 93.0752 26.4127 94.1152 26.8278C95.3875 27.3465 96.3219 27.9528 96.923 28.6481C97.5219 29.3411 97.8208 30.2085 97.8208 31.2435Z" fill="black"/>
<path d="M105.653 26.4465H103.042V31.6879C103.042 33.021 103.502 33.687 104.425 33.687C104.848 33.687 105.199 33.6499 105.477 33.5756L105.542 35.397C105.076 35.5736 104.461 35.6625 103.7 35.6625C102.765 35.6625 102.033 35.3734 101.506 34.7962C100.98 34.218 100.716 33.2482 100.716 31.8859V26.4442H99.1602V24.6442H100.716V22.6676L103.042 21.9566V24.6442H105.653V26.4465Z" fill="black"/>
<path d="M117.435 29.9553C117.435 31.6147 116.966 32.9771 116.03 34.0425C115.049 35.1393 113.747 35.6861 112.123 35.6861C110.559 35.6861 109.313 35.1607 108.385 34.11C107.456 33.0592 106.991 31.7328 106.991 30.1342C106.991 28.4613 107.469 27.0911 108.428 26.0257C109.385 24.9592 110.676 24.426 112.299 24.426C113.863 24.426 115.122 24.9513 116.072 26.0032C116.981 27.0236 117.435 28.341 117.435 29.9553ZM114.977 30.033C114.977 29.0373 114.767 28.1835 114.341 27.4713C113.845 26.6096 113.135 26.1798 112.215 26.1798C111.262 26.1798 110.539 26.6107 110.042 27.4713C109.617 28.1846 109.407 29.052 109.407 30.078C109.407 31.0736 109.617 31.9275 110.042 32.6385C110.555 33.5002 111.27 33.93 112.193 33.93C113.098 33.93 113.808 33.4912 114.32 32.616C114.757 31.8903 114.977 31.0275 114.977 30.033Z" fill="black"/>
<path d="M125.134 26.7559C124.9 26.712 124.65 26.6895 124.387 26.6895C123.554 26.6895 122.91 27.0079 122.456 27.6457C122.062 28.2082 121.864 28.9192 121.864 29.7776V35.442H119.496L119.519 28.0462C119.519 26.802 119.489 25.6691 119.43 24.6476H121.493L121.58 26.7131H121.645C121.895 26.0032 122.29 25.4317 122.83 25.0031C123.357 24.6172 123.927 24.4249 124.542 24.4249C124.761 24.4249 124.959 24.4406 125.134 24.4687V26.7559Z" fill="black"/>
<path d="M135.728 29.5335C135.728 29.9632 135.701 30.3255 135.642 30.6214H128.535C128.563 31.6879 128.906 32.5035 129.566 33.066C130.165 33.5689 130.94 33.8209 131.891 33.8209C132.943 33.8209 133.903 33.651 134.766 33.3101L135.137 34.9751C134.128 35.4206 132.937 35.6422 131.563 35.6422C129.91 35.6422 128.612 35.1495 127.667 34.1651C126.725 33.1807 126.253 31.8589 126.253 30.2006C126.253 28.5727 126.692 27.2171 127.571 26.136C128.491 24.9817 129.734 24.4046 131.298 24.4046C132.835 24.4046 133.998 24.9817 134.788 26.136C135.414 27.0529 135.728 28.1869 135.728 29.5335ZM133.47 28.9114C133.485 28.2004 133.331 27.5861 133.01 27.0675C132.6 26.4004 131.97 26.0674 131.122 26.0674C130.347 26.0674 129.717 26.3925 129.236 27.045C128.842 27.5636 128.607 28.1857 128.535 28.9102H133.47V28.9114Z" fill="black"/>
<path d="M54.5004 11.2602C54.5004 12.5843 54.1082 13.581 53.3249 14.2504C52.5993 14.868 51.5682 15.1774 50.2326 15.1774C49.5704 15.1774 49.0037 15.1482 48.5293 15.0897V7.85478C49.1482 7.75353 49.8149 7.70178 50.5349 7.70178C51.8071 7.70178 52.766 7.98191 53.4126 8.54216C54.1371 9.17553 54.5004 10.0812 54.5004 11.2602ZM53.2726 11.2928C53.2726 10.4344 53.0482 9.77628 52.5993 9.31728C52.1504 8.85941 51.4949 8.62991 50.6315 8.62991C50.2649 8.62991 49.9526 8.65466 49.6937 8.70641V14.2065C49.8371 14.229 50.0993 14.2392 50.4804 14.2392C51.3715 14.2392 52.0593 13.9883 52.5437 13.4865C53.0282 12.9848 53.2726 12.2535 53.2726 11.2928Z" fill="black"/>
<path d="M61.0109 12.4167C61.0109 13.2323 60.7809 13.9006 60.3209 14.4248C59.8386 14.9637 59.1997 15.2326 58.402 15.2326C57.6331 15.2326 57.0209 14.9749 56.5642 14.4574C56.1086 13.9411 55.8809 13.2897 55.8809 12.5044C55.8809 11.6832 56.1153 11.0093 56.5864 10.4862C57.0575 9.96305 57.6909 9.70093 58.4886 9.70093C59.2575 9.70093 59.8753 9.95855 60.3431 10.4749C60.7875 10.9767 61.0109 11.6247 61.0109 12.4167ZM59.8031 12.4549C59.8031 11.9656 59.6986 11.5459 59.4909 11.1961C59.2464 10.7731 58.8986 10.5616 58.4464 10.5616C57.9786 10.5616 57.6231 10.7731 57.3786 11.1961C57.1697 11.5459 57.0664 11.9723 57.0664 12.4763C57.0664 12.9657 57.1709 13.3853 57.3786 13.7352C57.6309 14.1582 57.982 14.3697 58.4353 14.3697C58.8797 14.3697 59.2286 14.1548 59.4797 13.7239C59.6953 13.3673 59.8031 12.9443 59.8031 12.4549Z" fill="black"/>
<path d="M69.7393 9.80896L68.1004 15.1122H67.0337L66.3548 12.8093C66.1826 12.2345 66.0426 11.663 65.9337 11.096H65.9126C65.8115 11.6787 65.6715 12.2491 65.4915 12.8093L64.7704 15.1122H63.6915L62.1504 9.80896H63.3471L63.9393 12.3301C64.0826 12.9263 64.2004 13.4945 64.2948 14.0322H64.3159C64.4026 13.589 64.5459 13.0242 64.7482 12.3413L65.4915 9.81009H66.4404L67.1526 12.2873C67.3248 12.8915 67.4648 13.4731 67.5726 14.0333H67.6048C67.6837 13.4877 67.8026 12.9061 67.9604 12.2873L68.5959 9.81009H69.7393V9.80896Z" fill="black"/>
<path d="M75.7757 15.1122H74.6112V12.0747C74.6112 11.1387 74.2601 10.6707 73.5557 10.6707C73.2101 10.6707 72.9312 10.7989 72.7146 11.0566C72.5001 11.3142 72.3912 11.6179 72.3912 11.9656V15.1111H71.2268V11.3243C71.2268 10.8586 71.2123 10.3534 71.1846 9.8067H72.2079L72.2623 10.6358H72.2946C72.4301 10.3782 72.6323 10.1656 72.8979 9.9957C73.2135 9.7977 73.5668 9.69757 73.9535 9.69757C74.4423 9.69757 74.849 9.85732 75.1723 10.1779C75.5746 10.5706 75.7757 11.1567 75.7757 11.9352V15.1122Z" fill="black"/>
<path d="M78.9875 15.1122H77.8242V7.37555H78.9875V15.1122Z" fill="black"/>
<path d="M85.8429 12.4167C85.8429 13.2323 85.6129 13.9006 85.1529 14.4248C84.6707 14.9637 84.0307 15.2326 83.234 15.2326C82.464 15.2326 81.8518 14.9749 81.3962 14.4574C80.9407 13.9411 80.7129 13.2897 80.7129 12.5044C80.7129 11.6832 80.9473 11.0093 81.4184 10.4862C81.8896 9.96305 82.5229 9.70093 83.3196 9.70093C84.0896 9.70093 84.7062 9.95855 85.1751 10.4749C85.6196 10.9767 85.8429 11.6247 85.8429 12.4167ZM84.634 12.4549C84.634 11.9656 84.5296 11.5459 84.3218 11.1961C84.0784 10.7731 83.7296 10.5616 83.2784 10.5616C82.8096 10.5616 82.454 10.7731 82.2107 11.1961C82.0018 11.5459 81.8984 11.9723 81.8984 12.4763C81.8984 12.9657 82.0029 13.3853 82.2107 13.7352C82.4629 14.1582 82.814 14.3697 83.2673 14.3697C83.7118 14.3697 84.0596 14.1548 84.3107 13.7239C84.5273 13.3673 84.634 12.9443 84.634 12.4549Z" fill="black"/>
<path d="M91.4777 15.1122H90.4322L90.3455 14.5013H90.3133C89.9555 14.9884 89.4455 15.2326 88.7833 15.2326C88.2888 15.2326 87.8888 15.0717 87.5877 14.7522C87.3144 14.4619 87.1777 14.1008 87.1777 13.6722C87.1777 13.0242 87.4444 12.5303 87.9811 12.1883C88.5166 11.8463 89.27 11.6787 90.24 11.6866V11.5876C90.24 10.8889 89.8777 10.5402 89.1522 10.5402C88.6355 10.5402 88.18 10.6718 87.7866 10.9328L87.55 10.1588C88.0366 9.85393 88.6377 9.70093 89.3466 9.70093C90.7155 9.70093 91.4022 10.4322 91.4022 11.8947V13.8477C91.4022 14.3776 91.4277 14.7994 91.4777 15.1122ZM90.2688 13.2897V12.4718C88.9844 12.4493 88.3422 12.8059 88.3422 13.5406C88.3422 13.8173 88.4155 14.0243 88.5655 14.1627C88.7155 14.3011 88.9066 14.3697 89.1344 14.3697C89.39 14.3697 89.6288 14.2876 89.8466 14.1244C90.0655 13.9602 90.2 13.7521 90.25 13.4967C90.2622 13.4393 90.2688 13.3696 90.2688 13.2897Z" fill="black"/>
<path d="M98.0947 15.1122H97.0614L97.0069 14.2605H96.9747C96.6447 14.9085 96.0825 15.2325 95.2925 15.2325C94.6614 15.2325 94.1358 14.9817 93.7192 14.4799C93.3025 13.9782 93.0947 13.3268 93.0947 12.5269C93.0947 11.6685 93.3203 10.9733 93.7736 10.4423C94.2125 9.9473 94.7503 9.6998 95.3903 9.6998C96.0936 9.6998 96.5858 9.93942 96.8658 10.4198H96.8881V7.37555H98.0536V13.6834C98.0536 14.1998 98.0669 14.6757 98.0947 15.1122ZM96.8881 12.8757V11.9914C96.8881 11.8384 96.8769 11.7147 96.8558 11.6202C96.7903 11.3367 96.6492 11.0982 96.4347 10.9058C96.2181 10.7134 95.9569 10.6167 95.6558 10.6167C95.2214 10.6167 94.8814 10.791 94.6314 11.1409C94.3836 11.4908 94.2581 11.9374 94.2581 12.483C94.2581 13.0073 94.3769 13.4325 94.6158 13.7599C94.8681 14.1087 95.2081 14.283 95.6336 14.283C96.0158 14.283 96.3214 14.1379 96.5536 13.8465C96.7781 13.5777 96.8881 13.2537 96.8881 12.8757Z" fill="black"/>
<path d="M108.054 12.4167C108.054 13.2323 107.824 13.9006 107.364 14.4248C106.882 14.9637 106.244 15.2326 105.445 15.2326C104.677 15.2326 104.065 14.9749 103.607 14.4574C103.152 13.9411 102.924 13.2897 102.924 12.5044C102.924 11.6832 103.158 11.0093 103.629 10.4862C104.1 9.96305 104.734 9.70093 105.533 9.70093C106.3 9.70093 106.919 9.95855 107.386 10.4749C107.831 10.9767 108.054 11.6247 108.054 12.4167ZM106.847 12.4549C106.847 11.9656 106.743 11.5459 106.535 11.1961C106.289 10.7731 105.943 10.5616 105.489 10.5616C105.023 10.5616 104.667 10.7731 104.422 11.1961C104.213 11.5459 104.109 11.9723 104.109 12.4763C104.109 12.9657 104.214 13.3853 104.422 13.7352C104.674 14.1582 105.025 14.3697 105.478 14.3697C105.923 14.3697 106.273 14.1548 106.524 13.7239C106.738 13.3673 106.847 12.9443 106.847 12.4549Z" fill="black"/>
<path d="M114.315 15.1122H113.151V12.0747C113.151 11.1387 112.8 10.6707 112.095 10.6707C111.749 10.6707 111.47 10.7989 111.255 11.0566C111.039 11.3142 110.931 11.6179 110.931 11.9656V15.1111H109.766V11.3243C109.766 10.8586 109.752 10.3534 109.725 9.8067H110.747L110.801 10.6358H110.833C110.97 10.3782 111.172 10.1656 111.437 9.9957C111.753 9.7977 112.106 9.69757 112.494 9.69757C112.981 9.69757 113.388 9.85732 113.711 10.1779C114.115 10.5706 114.315 11.1567 114.315 11.9352V15.1122Z" fill="black"/>
<path d="M122.151 10.692H120.869V13.2683C120.869 13.923 121.096 14.2504 121.548 14.2504C121.756 14.2504 121.93 14.2324 122.066 14.1953L122.096 15.0897C121.866 15.1774 121.564 15.2213 121.192 15.2213C120.732 15.2213 120.374 15.0795 120.115 14.796C119.855 14.5125 119.726 14.0355 119.726 13.3662V10.692H118.961V9.80891H119.726V8.83691L120.868 8.48816V9.80778H122.15L122.151 10.692Z" fill="black"/>
<path d="M128.316 15.1122H127.151V12.0972C127.151 11.1465 126.8 10.6707 126.096 10.6707C125.556 10.6707 125.188 10.9463 124.985 11.4975C124.951 11.6134 124.931 11.7552 124.931 11.9217V15.111H123.768V7.37555H124.931V10.5717H124.953C125.32 9.99005 125.845 9.6998 126.526 9.6998C127.009 9.6998 127.408 9.85955 127.724 10.1802C128.119 10.5795 128.316 11.1735 128.316 11.9588V15.1122Z" fill="black"/>
<path d="M134.675 12.2097C134.675 12.4212 134.66 12.5989 134.632 12.744H131.14C131.155 13.2683 131.322 13.6677 131.645 13.9444C131.941 14.1919 132.322 14.3157 132.789 14.3157C133.305 14.3157 133.776 14.2324 134.201 14.0648L134.383 14.8838C133.886 15.102 133.302 15.2112 132.625 15.2112C131.814 15.2112 131.175 14.9693 130.713 14.4855C130.249 14.0018 130.019 13.3527 130.019 12.5382C130.019 11.7383 130.233 11.0723 130.665 10.5413C131.116 9.9743 131.726 9.6908 132.496 9.6908C133.25 9.6908 133.822 9.9743 134.209 10.5413C134.521 10.9913 134.675 11.5482 134.675 12.2097ZM133.564 11.9048C133.573 11.5549 133.496 11.2534 133.339 10.9992C133.136 10.6718 132.829 10.5075 132.412 10.5075C132.032 10.5075 131.722 10.6673 131.485 10.9879C131.292 11.2433 131.177 11.5482 131.14 11.9048H133.564Z" fill="black"/>
</svg>
