<svg width="150" height="45" viewBox="0 0 150 45" fill="none" xmlns="http://www.w3.org/2000/svg">
<path d="M5.55557 0C2.50137 0 0 2.53256 0 5.62489V39.3748C0 42.4671 2.50137 45 5.55557 45H144.444C147.499 45 150 42.4671 150 39.3748V5.62489C150 2.53256 147.499 0 144.444 0H5.55557ZM49.408 7.61049C49.9009 7.61049 50.3717 7.71368 50.8187 7.90431C51.265 8.09708 51.6338 8.35953 51.9026 8.68793L51.968 8.76746L51.2306 9.52077L51.1532 9.42773C50.728 8.91935 50.16 8.67113 49.408 8.67113C48.7338 8.67113 48.16 8.90593 47.6631 9.38692C47.1744 9.86685 46.931 10.4783 46.931 11.2495C46.931 12.02 47.1743 12.6379 47.6619 13.1174L47.6631 13.1186C48.1602 13.5944 48.7346 13.8344 49.408 13.8344C50.1266 13.8344 50.7188 13.5931 51.1919 13.1141C51.4671 12.8344 51.6035 12.4256 51.668 11.9392H49.2973V10.9001H52.7244L52.7443 10.9896C52.7794 11.1533 52.7869 11.3084 52.7897 11.4602L52.7965 11.465V11.5238C52.7965 12.4854 52.5086 13.2728 51.9404 13.856L51.9393 13.8572C51.2898 14.5433 50.4356 14.8906 49.408 14.8906C48.4228 14.8906 47.5712 14.5365 46.8803 13.847H46.8791V13.8458C46.1864 13.1459 45.837 12.2762 45.837 11.2504C45.837 10.2246 46.1871 9.353 46.8803 8.65852C47.5712 7.96368 48.4231 7.61049 49.408 7.61049ZM79.3456 7.61049C80.3363 7.61049 81.1844 7.96466 81.8605 8.67233C82.5396 9.37765 82.8803 10.2421 82.8803 11.2504C82.8803 12.2645 82.5405 13.1342 81.866 13.8344C81.1899 14.5363 80.3417 14.8906 79.3456 14.8906C78.3442 14.8906 77.496 14.5363 76.8199 13.8344C76.1455 13.1342 75.8057 12.2645 75.8057 11.2504C75.8057 10.2363 76.1455 9.36684 76.8199 8.66662C77.496 7.96476 78.3442 7.61049 79.3456 7.61049ZM53.8064 7.76476H57.9176V8.70624V8.81969H54.8859V10.7309H57.6185V11.7699H54.8859V13.6802H57.9176V14.7351H53.8064V7.76476ZM58.592 7.76476H63.392V8.81969H61.5316V14.6216V14.7351H60.4521V8.81969H58.592V7.76476ZM66.4857 7.76476H67.563V14.7351H66.5953H66.4857V7.76476ZM68.4223 7.76476H73.2281V8.81969H71.3622V14.6216V14.7351H70.2894V8.81969H68.4223V7.76476ZM83.8635 7.76476H85.0758L88.1719 12.7783L88.1443 11.8278V7.76476H89.2216V14.7351H88.1552L84.9076 9.46495L84.9352 10.419V14.7351H83.9731H83.8635V7.76476ZM12.414 8.06668C12.7433 8.06713 13.0667 8.15668 13.3515 8.32629L30.2596 17.8345L26.1076 22.0929L26.1059 22.0911L12.414 8.06668ZM11.6813 8.21854L25.6084 22.4875L25.4443 22.6559V22.6646L24.7866 23.3303L11.6695 36.7821C11.3059 36.536 11.0842 36.0592 11.0792 35.3859V34.9423V10.0631V9.62851C11.0792 8.95522 11.3093 8.44069 11.6813 8.21854ZM79.3456 8.66542C78.6544 8.66542 78.0876 8.9057 77.6118 9.39142C77.1395 9.87543 76.9008 10.4892 76.9008 11.2504C76.9008 12.0115 77.1396 12.6244 77.6118 13.1084C78.0876 13.5942 78.6544 13.8344 79.3456 13.8344C80.0311 13.8344 80.6045 13.5946 81.0741 13.1096C81.547 12.6255 81.7852 12.0119 81.7852 11.2504C81.7852 10.4889 81.5468 9.87434 81.0741 9.39022C80.6045 8.9052 80.0311 8.66542 79.3456 8.66542ZM30.7582 18.1145L36.385 21.2844C37.5726 21.9525 37.5726 23.0582 36.3832 23.7297L30.7901 26.8912L26.4929 22.4893L30.7582 18.1145ZM53.0487 19.1769C55.2848 19.1769 56.8792 20.0671 58.0778 21.2258L56.6625 22.6589C55.8055 21.8405 54.6445 21.209 53.0487 21.209C50.0973 21.209 47.7861 23.6208 47.7861 26.6091C47.7861 29.5974 50.0973 32.0089 53.0487 32.0089C54.964 32.0089 56.0542 31.2285 56.7542 30.5254C57.3292 29.9432 57.704 29.108 57.8443 27.9717H53.0487V25.9383H59.7984C59.8692 26.3012 59.9068 26.7357 59.9068 27.2082C59.9068 28.7297 59.4943 30.6141 58.1707 31.9543C56.8791 33.3155 55.2362 34.041 53.0487 34.041C49.0015 34.041 45.6 30.7069 45.6 26.6091C45.6 22.5113 49.0015 19.1769 53.0487 19.1769ZM91.8082 19.6874H93.8862V33.7499H91.8082V19.6874ZM108.149 19.6874H113.118C115.414 19.6874 117.676 21.3736 117.676 24.0539C117.676 26.7356 115.42 28.4216 113.118 28.4216H110.221V33.7499H108.149V19.6874ZM118.815 19.6874H120.893V33.7499H118.815V19.6874ZM110.221 21.6436V26.4657H113.172C114.719 26.4657 115.603 25.1424 115.603 24.0539C115.603 22.9444 114.719 21.6436 113.172 21.6436H110.221ZM26.1076 22.884L30.2947 27.1697L13.3532 36.7034C13.0567 36.8836 12.7171 36.9759 12.3724 36.9699L26.1076 22.884ZM125.982 24.4446C128.364 24.4446 130.203 25.8398 130.203 28.333V33.7274H128.201V32.6404H128.13C127.647 33.3814 126.878 34.0185 125.483 34.0185C123.66 34.0185 122.037 32.8047 122.037 30.9204C122.037 28.8603 124.055 27.7565 126.036 27.7565C127.024 27.7565 127.826 28.0813 128.201 28.3006V28.1529C128.185 26.9984 127.094 26.3447 126.019 26.3447C125.25 26.3447 124.522 26.5979 124.126 27.3783L122.287 26.5977C122.927 25.1141 124.485 24.4446 125.982 24.4446ZM65.3596 24.4717C67.9735 24.4717 70.1013 26.4826 70.1013 29.2571C70.1013 32.0091 67.9735 34.041 65.3596 34.041C62.7443 34.041 60.6182 32.0091 60.6182 29.2571C60.6182 26.4826 62.7443 24.4717 65.3596 24.4717ZM75.7055 24.4717C78.3207 24.4717 80.4527 26.4826 80.4527 29.2571C80.4527 32.0091 78.3207 34.041 75.7055 34.041C73.0957 34.041 70.9638 32.0091 70.9638 29.2571C70.9638 26.4826 73.0957 24.4717 75.7055 24.4717ZM85.8513 24.4717C86.9791 24.4717 87.8693 24.9777 88.3359 25.5374H88.4057V24.7625H90.375V33.3547C90.375 36.8857 88.3193 38.337 85.8832 38.337C83.5943 38.337 82.2152 36.7762 81.6943 35.5077L83.5014 34.7442C83.8264 35.5247 84.6138 36.4528 85.8832 36.4528C87.4401 36.4528 88.4057 35.4696 88.4057 33.6401V32.954H88.3359C87.8693 33.5306 86.9791 34.041 85.8513 34.041C83.4846 34.041 81.3208 31.9541 81.3208 29.2724C81.3208 26.5752 83.4846 24.4717 85.8513 24.4717ZM99.3431 24.4717C101.796 24.4717 103 26.4444 103.39 27.5146L103.608 28.0587L97.2876 30.7067C97.7709 31.6685 98.5249 32.1566 99.5763 32.1566C100.635 32.1566 101.367 31.6293 101.904 30.8333L103.515 31.9204C103 32.7009 101.747 34.041 99.5763 34.041C96.8915 34.041 94.8888 31.9374 94.8888 29.2571C94.8888 26.4109 96.9125 24.4717 99.3431 24.4717ZM130.344 24.7529H132.579L135.041 30.8489H135.112L137.494 24.7529H139.8L134.098 38.0123H131.933L134.044 33.2718L130.344 24.7529ZM99.414 26.318C98.3612 26.318 96.8917 27.2629 96.9457 29.1079L101.172 27.3333C100.939 26.7356 100.239 26.318 99.414 26.318ZM65.3596 26.3558C63.9262 26.3558 62.6903 27.5316 62.6903 29.2571C62.6903 30.9601 63.9262 32.1566 65.3596 32.1566C66.7915 32.1566 68.0235 30.9601 68.0235 29.2571C68.0235 27.5316 66.7915 26.3558 65.3596 26.3558ZM75.7055 26.3558C74.2735 26.3558 73.0415 27.5316 73.0415 29.2571C73.0415 30.9601 74.2735 32.1566 75.7055 32.1566C77.1374 32.1566 78.375 30.9601 78.375 29.2571C78.375 27.5316 77.1374 26.3558 75.7055 26.3558ZM86.0291 26.3558C84.5972 26.3558 83.3985 27.5863 83.3985 29.2724C83.3985 30.9431 84.5972 32.1566 86.0291 32.1566C87.4402 32.1566 88.5527 30.9431 88.5527 29.2724C88.5527 27.5863 87.4402 26.3558 86.0291 26.3558ZM126.307 29.454C125.287 29.454 124.109 29.8716 124.109 30.96C124.109 31.8107 125.054 32.1512 125.732 32.1512C126.932 32.1512 128.039 31.2285 128.201 29.9264C127.647 29.6577 127.219 29.454 126.307 29.454Z" fill="#E7C78F"/>
</svg>
